<?xml version="1.0" encoding="UTF-8"?>
<svg id="Layer_2" data-name="Layer 2" xmlns="http://www.w3.org/2000/svg" viewBox="0 0 151.26266 129.72532">
  <defs>
    <style>
      .cls-1 {
        fill: #de1470;
      }
    </style>
  </defs>
  <g id="Layer_1-2" data-name="Layer 1">
    <path class="cls-1" d="m117.31109,68.70906h27.40695c-18.49143,36.60962-69.03995,61.01626-69.03995,61.01626,0,0-50.64027-24.40664-69.13351-61.01626h29.20928l4.17182-2.741,6.54461-21.621,16.02689,57.65645h9.00909l9.48415-33.29445h15.4583l4.17182-2.741,5.97415-21.621,5.97451,21.621,4.74189,2.741Zm-84.49825-8.31161h0l8.91553-32.6753h8.91372l16.12229,57.0816,6.54277-21.04649,4.0779-3.35981h15.55407l9.48376-32.6753h8.34546l9.48379,32.6753h27.40695c2.37131-5.528,3.6036-11.62881,3.6036-17.73132,0-23.83044-19.63196-42.66614-44.0979-42.66614-12.51873,0-23.80339,4.99643-31.48667,13.8396C67.33303,4.99643,55.9526,0,43.52928,0,19.63157,0,0,18.8357,0,42.66614c0,6.10251,1.23407,12.20332,3.03494,17.73132h29.7779Z"/>
  </g>
</svg>